<?xml version="1.0" encoding="UTF-8"?>
<svg width="375px" height="375px" enable-background="new 0 0 375 375" version="1.1" viewBox="0 0 375 375" xml:space="preserve" xmlns="http://www.w3.org/2000/svg" xmlns:cc="http://creativecommons.org/ns#" xmlns:dc="http://purl.org/dc/elements/1.1/" xmlns:rdf="http://www.w3.org/1999/02/22-rdf-syntax-ns#"><metadata><rdf:RDF><cc:Work rdf:about=""><dc:format>image/svg+xml</dc:format><dc:type rdf:resource="http://purl.org/dc/dcmitype/StillImage"/><dc:title/></cc:Work></rdf:RDF></metadata>
	<circle cx="187.5" cy="187.5" r="161" fill="#232323"/><g fill="none" stroke-miterlimit="10"><g stroke-width="10">
		<path d="m44.57 162.59c-13.43 76.14 34.07 139.89 92.43 160.91" stroke="#f9ff00"/>
		<path d="m94.02 76.54c-28.11 23.59-44 55.34-49.51 86.38" stroke="#f00"/>
		<path d="m138.79 324.16c40.37 14.45 85.52 10.28 121.51-10.49 62.8-36.26 97.13-122.44 53.2-198.53" stroke="#007511"/></g><g stroke="#fff"><g stroke-width="4">
		<line x1="283.98" x2="268.92" y1="72.52" y2="90.47"/>
		<line x1="297.2" x2="317.49" y1="124.17" y2="112.45"/>
		<line x1="335.32" x2="312.24" y1="161.44" y2="165.51"/>
		<line x1="335.32" x2="312.24" y1="213.57" y2="209.5"/>
		<line x1="317.49" x2="297.2" y1="262.55" y2="250.84"/>
		<line x1="283.98" x2="268.92" y1="302.48" y2="284.54"/>
		<line x1="238.83" x2="230.82" y1="328.55" y2="306.53"/>
		<line x1="187.5" x2="187.5" y1="337.6" y2="314.17"/>
		<line x1="136.16" x2="144.17" y1="328.54" y2="306.53"/>
		<line x1="91.02" x2="106.08" y1="302.48" y2="284.53"/>
		<line x1="57.51" x2="77.8" y1="262.55" y2="250.83"/>
		<line x1="39.68" x2="62.75" y1="213.56" y2="209.5"/>
		<line x1="39.68" x2="62.75" y1="161.43" y2="165.5"/>
		<line x1="57.51" x2="77.8" y1="112.45" y2="124.17"/>
		<line x1="91.02" x2="106.08" y1="72.52" y2="90.47"/>
		</g><line x1="302.48" x2="290.24" y1="91.02" y2="101.3" stroke-width="2"/>
		<line x1="238.84" x2="230.82" y1="46.46" y2="68.47" stroke-width="4"/>
		<line x1="262.55" x2="254.56" y1="57.52" y2="71.36" stroke-width="2"/>
		<line x1="187.5" x2="187.5" y1="37.4" y2="60.83" stroke-width="4"/><g stroke-width="2">
		<line x1="213.56" x2="210.79" y1="39.69" y2="55.42"/>
		<line x1="200.58" x2="199.61" y1="37.98" y2="49.12"/>
		<line x1="226.35" x2="223.46" y1="42.52" y2="53.32"/>
		<line x1="250.93" x2="246.21" y1="51.47" y2="61.61"/>
		<line x1="273.59" x2="267.18" y1="64.55" y2="73.71"/>
		<line x1="328.54" x2="313.53" y1="136.17" y2="141.64"/>
		<line x1="337.59" x2="321.61" y1="187.5" y2="187.51"/>
		<line x1="328.54" x2="313.52" y1="238.84" y2="233.38"/>
		<line x1="302.48" x2="290.23" y1="283.98" y2="273.71"/>
		<line x1="262.55" x2="254.55" y1="317.49" y2="303.65"/>
		<line x1="213.56" x2="210.78" y1="335.32" y2="319.58"/>
		<line x1="161.43" x2="164.2" y1="335.32" y2="319.58"/>
		<line x1="112.45" x2="120.44" y1="317.49" y2="303.64"/>
		<line x1="72.52" x2="84.76" y1="283.98" y2="273.7"/>
		<line x1="46.45" x2="61.47" y1="238.84" y2="233.36"/>
		<line x1="37.4" x2="53.38" y1="187.5" y2="187.49"/>
		<line x1="46.45" x2="61.47" y1="136.16" y2="141.62"/>
		<line x1="72.52" x2="84.76" y1="91.02" y2="101.29"/></g></g></g>
		<g fill="#fff" font-family="ARIAL">
		<g font-size="20px">
		<text transform="translate(181.83,84.149)">0</text>
		<text transform="translate(232.83,111.15)">100</text>
		<text transform="translate(274.33,174.65)">200</text>
		<text transform="translate(254.55,250.84)">300</text>
		<text transform="translate(208.17,298.65)">400</text>
		<text transform="translate(136.17,299.65)">500</text>
		<text transform="translate(87.326,251.15)">600</text>
		<text transform="translate(72.641,174.15)">700</text>
		<text transform="translate(109.45,109.15)">800</text>
		</g>
		<g font-size="14px">
		<text transform="translate(162.16,229.69)">KNOTS</text>
		<text transform="translate(148.09,152.69)">AIR SPEED</text>
		</g>
		</g>
</svg>
