<?xml version="1.0" encoding="UTF-8" standalone="no"?>
<svg xmlns:osb="http://www.openswatchbook.org/uri/2009/osb"
   xmlns:dc="http://purl.org/dc/elements/1.1/"
   xmlns:cc="http://creativecommons.org/ns#"
   xmlns:rdf="http://www.w3.org/1999/02/22-rdf-syntax-ns#"
   xmlns:svg="http://www.w3.org/2000/svg"
   xmlns="http://www.w3.org/2000/svg" version="1.1" x="0px" y="0px" viewBox="0 0 375 375" enable-background="new 0 0 375 375" xml:space="preserve" id="svg21">
   <path id="window" style="fill:#0081d4;fill-opacity:1;stroke:none;stroke-width:0.2;stroke-linecap:butt;stroke-linejoin:miter;stroke-miterlimit:4;stroke-dasharray:none;stroke-opacity:1" d="m 166.66,216.04001 c 14.26535,8.29083 28.77551,7.18508 41.68,0.04 L 233.43301,257.987 C 206.3729,275.30381 171.31428,275.1354 141.65,258.04 l 25.01,-42 z" />
   <g id="cloud" transform="matrix(0.09459535,0,0,0.09854335,166.82403,228.84821)" style="fill:#ffffff;fill-opacity:1">
      <path d="m 383.60547,120.3125 c -5.85156,0.004 -11.6875,0.58594 -17.42578,1.74609 C 361.85547,100.47656 347.875,82.066406 328.25,72.101562 308.62109,62.136719 285.50781,61.714844 265.53125,70.960938 247.45313,21.167969 192.42969,-4.546875 142.63281,13.535156 92.835938,31.613281 67.125,86.636719 85.203125,136.43359 41.582031,137.8125 7.125,173.91406 7.78125,217.55469 c 0.652344,43.63672 36.179688,78.6914 79.824219,78.75781 H 383.60547 c 48.60156,0 88,-39.39844 88,-88 0,-48.59766 -39.39844,-88 -88,-88 z m 0,0" fill="#a3d4f7" id="path955" style="fill:#ffffff;fill-opacity:1" />
      <path d="m 383.60547,112.3125 c -3.83203,0.004 -7.66016,0.23438 -11.46485,0.69141 C 361.8125,79.371094 330.78516,56.386719 295.60547,56.3125 286.84766,56.304688 278.15234,57.757812 269.875,60.609375 249.38672,16.308594 200.83203,-7.769531 153.16797,2.738281 105.5,13.246094 71.570312,55.503906 71.605469,104.3125 c 0.0039,8.43359 1.054687,16.83594 3.117187,25.00781 -45.414062,6.9336 -77.859375,47.63672 -74.484375,93.45313 3.371094,45.82031 41.425781,81.33593 87.367188,81.53906 H 383.60547 c 53.01953,0 96,-42.98047 96,-96 0,-53.01953 -42.98047,-96 -96,-96 z m 0,176 H 87.605469 C 48.164062,288.48437 15.9375,256.87109 15.347656,217.43359 c -0.585937,-39.4375 30.683594,-71.99609 70.113282,-73 2.558593,-0.0703 4.929687,-1.36328 6.375,-3.47656 1.449218,-2.11328 1.796874,-4.78906 0.9375,-7.20312 C 76.894531,88.3125 100.51563,38.550781 145.76172,22.121094 c 45.24609,-16.429688 95.29297,6.589844 112.26562,51.632812 0.77735,2.089844 2.38672,3.757813 4.44532,4.609375 2.0625,0.851563 4.3789,0.804688 6.40234,-0.128906 8.375,-3.894531 17.49609,-5.914063 26.73047,-5.921875 30.4375,0.05469 56.64844,21.496094 62.72656,51.32031 0.8711,4.33594 5.09375,7.14063 9.42578,6.26563 5.21485,-1.04688 10.52344,-1.57813 15.84766,-1.58594 44.18359,0 80,35.82031 80,80 0,44.18359 -35.81641,80 -80,80 z m 0,0" id="path957" style="fill:#ffffff;fill-opacity:1" />
   </g>
   <text id="alt_depth" style="font-style:normal;font-variant:normal;font-weight:normal;font-stretch:normal;font-size:16px;font-family:Arial;-inkscape-font-specification:Arial;fill:#000000;fill-opacity:1;stroke:#ffffff;stroke-width:0.5;stroke-miterlimit:10" transform="translate(268.0971,194.5012)" x="26.947266" y="0">
      <tspan style="font-style:normal;font-variant:normal;font-weight:normal;font-stretch:normal;font-size:16px;font-family:Arial;-inkscape-font-specification:Arial;text-align:end;text-anchor:end;fill:#ffffff;fill-opacity:1" id="tspan851">ALTITUDE</tspan>
   </text>
</svg>
