<?xml version="1.0" encoding="UTF-8" standalone="no"?>
<svg xmlns:dc="http://purl.org/dc/elements/1.1/"
   xmlns:cc="http://creativecommons.org/ns#"
   xmlns:rdf="http://www.w3.org/1999/02/22-rdf-syntax-ns#"
   xmlns:svg="http://www.w3.org/2000/svg"
   xmlns="http://www.w3.org/2000/svg" version="1.1" x="0px" y="0px" viewBox="0 0 375 375" enable-background="new 0 0 375 375" xml:space="preserve" id="svg21">
   <path id="window" style="fill:#000000;fill-opacity:1;stroke:none;stroke-width:0.2;stroke-linecap:butt;stroke-linejoin:miter;stroke-miterlimit:4;stroke-dasharray:none;stroke-opacity:1" d="m 166.66,216.04001 c 14.26535,8.29083 28.77551,7.18508 41.68,0.04 L 233.43301,257.987 C 206.3729,275.30381 171.31428,275.1354 141.65,258.04 l 25.01,-42 z" />
   <g id="space" style="fill:#ffffff;fill-opacity:1" transform="matrix(1.1587173,0,0,1.1587173,-81.403169,34.624526)">
      <path d="m 214.02917,181.48234 c 0.27698,-7.38847 3.34833,-12.65296 9.13273,-15.67797 4.52174,-2.36491 9.32945,-2.54802 10.69614,-2.54802 0.26905,0 0.41481,0.007 0.41481,0.007 0.15605,0.007 0.28266,0.1266 0.30074,0.28147 0.0169,0.15486 -0.0803,0.29955 -0.23063,0.34022 -3.41608,0.93709 -6.26708,5.23955 -6.29533,5.28258 -3.92369,5.63072 -3.36985,10.4837 -2.21453,13.56522 1.93755,5.17075 6.80862,8.84003 10.61811,9.79297 1.18026,0.29507 2.38299,0.44425 3.57554,0.44425 3.58134,0 6.31023,-1.35191 7.47571,-1.92833 0.45998,-0.22839 0.64995,-0.32237 0.81274,-0.32237 0.17519,0 0.35831,0.17638 0.35831,0.35169 0,0.5925 -3.32694,6.23445 -7.95484,8.04882 -2.10388,0.90884 -4.78182,1.41185 -7.53103,1.41185 -8.7528,-0.002 -18.3818,-5.00584 -19.15847,-19.04924 z m 28.54927,-20.39761 c -0.002,-0.15025 0.0813,-0.28821 0.21586,-0.35713 0.13346,-0.0679 0.29506,-0.0543 0.41612,0.035 l 2.90963,2.17162 3.43889,-1.16548 c 0.14127,-0.0498 0.30062,-0.0124 0.40572,0.0949 0.10615,0.10628 0.14363,0.26339 0.0949,0.40584 l -1.16525,3.43877 2.1715,2.90975 c 0.0906,0.11987 0.10391,0.28147 0.0351,0.416 -0.069,0.13453 -0.22508,0.19896 -0.35713,0.21598 l -3.63098,-0.0463 -2.09596,2.9652 c -0.0746,0.10509 -0.19553,0.16609 -0.32321,0.16609 -0.0203,0 -0.0418,-0.001 -0.0621,-0.004 -0.14824,-0.0238 -0.2713,-0.12886 -0.3154,-0.27249 l -1.07729,-3.46702 -3.46703,-1.07848 c -0.14363,-0.0452 -0.24979,-0.16739 -0.27248,-0.3154 -0.0238,-0.148 0.0395,-0.29731 0.1616,-0.38432 l 2.96508,-2.09584 z m -8.07932,16.89784 c -0.001,-0.0859 0.0463,-0.16503 0.12318,-0.20463 0.078,-0.0395 0.16952,-0.0305 0.23738,0.0203 l 1.66293,1.24126 1.96462,-0.66697 c 0.0815,-0.026 0.17177,-0.007 0.23301,0.0543 0.061,0.0611 0.0824,0.15037 0.0543,0.2317 l -0.66709,1.96581 1.24126,1.66282 c 0.0508,0.069 0.0598,0.1616 0.0203,0.23737 -0.0395,0.0758 -0.13571,0.12673 -0.20451,0.1233 l -2.07551,-0.0261 -1.19835,1.69473 c -0.0429,0.061 -0.11195,0.0949 -0.1843,0.0949 -0.0113,0 -0.0238,0 -0.035,-0.002 -0.0848,-0.0136 -0.15486,-0.0734 -0.18087,-0.15605 l -0.61602,-1.98153 -1.98046,-0.61507 c -0.0813,-0.0248 -0.14245,-0.0949 -0.15605,-0.18075 -0.0136,-0.0848 0.0226,-0.16964 0.0927,-0.21929 l 1.69451,-1.19823 z m 13.88736,8.63422 c -0.0598,0.0848 -0.15699,0.13465 -0.25877,0.13465 -0.0169,0 -0.0328,-0.001 -0.0496,-0.003 -0.11869,-0.0191 -0.21705,-0.10415 -0.25334,-0.21929 l -0.86262,-2.77736 -2.77735,-0.86261 c -0.11526,-0.0363 -0.20014,-0.13465 -0.21929,-0.25334 -0.0191,-0.11869 0.0317,-0.23856 0.13003,-0.30748 l 2.37519,-1.67866 -0.0374,-2.90751 c -0.001,-0.11987 0.0656,-0.2317 0.17295,-0.28596 0.10616,-0.0543 0.2362,-0.0429 0.33242,0.0283 l 2.32968,1.73978 2.75501,-0.93367 c 0.11195,-0.0407 0.23962,-0.0102 0.32556,0.0758 0.0848,0.0859 0.11408,0.21137 0.0758,0.32557 l -0.93367,2.75489 1.73978,2.33097 c 0.0712,0.096 0.0824,0.22603 0.0281,0.33242 -0.0543,0.10734 -0.16279,0.17413 -0.28609,0.17295 l -2.90739,-0.0385 z" id="path862" style="fill:#ffffff;fill-opacity:1;stroke-width:0.118215" />
   </g>
   <text id="alt_depth" style="font-style:normal;font-variant:normal;font-weight:normal;font-stretch:normal;font-size:16px;font-family:Arial;-inkscape-font-specification:Arial;fill:#000000;fill-opacity:1;stroke:#ffffff;stroke-width:0.5;stroke-miterlimit:10" transform="translate(268.0971,194.5012)" x="26.947266" y="0">
      <tspan style="font-style:normal;font-variant:normal;font-weight:normal;font-stretch:normal;font-size:16px;font-family:Arial;-inkscape-font-specification:Arial;text-align:end;text-anchor:end;fill:#ffffff;fill-opacity:1" id="tspan851">ALTITUDE</tspan>
   </text>
</svg>
