<?xml version="1.0" encoding="UTF-8"?>
<svg enable-background="new 0 0 375 375" version="1.1" viewBox="0 0 375 375" xmlns="http://www.w3.org/2000/svg">
 <g fill="none">
  <path d="m161.44 224.81 61.53 38.57c3.07-1.32 6.05-2.82 8.94-4.47l-66.1-41.43-4.37 7.33z"/>
  <path d="m152.36 240.06 47.48 29.76c4.11-0.57 8.14-1.41 12.05-2.52l-55.17-34.58-4.36 7.34z"/>
  <path d="m201.93 219.17c-3.75 1.43-7.76 2.33-11.96 2.58l34.69 21.74-9.57-16.07-13.16-8.25z"/>
  <path d="m143.27 255.31 18.45 11.56c7 2.1 14.36 3.38 21.97 3.7l-36.05-22.59-4.37 7.33z"/>
 </g>
 <g fill="#fff">
  <path d="m141.65 258.04c6.24 3.72 12.97 6.7 20.07 8.83l-18.45-11.56-1.62 2.73z"/>
  <path d="m147.64 247.98 36.05 22.59c1.28 0.05 2.56 0.09 3.84 0.09 4.18 0 8.28-0.29 12.31-0.84l-47.48-29.76-4.72 7.92z"/>
  <path d="m156.73 232.73 55.17 34.58c3.8-1.07 7.5-2.39 11.08-3.93l-61.53-38.57-4.72 7.92z"/>
  <path d="m187.53 221.83c-7.64 0-14.77-2.12-20.87-5.79l-0.86 1.44 66.1 41.43c0.48-0.27 0.97-0.54 1.44-0.83l-8.69-14.58-34.69-21.74c-0.79 0.04-1.61 0.07-2.43 0.07z"/>
  <path d="m208.34 216.08c-2.02 1.22-4.17 2.24-6.41 3.09l13.17 8.25-6.76-11.34z"/>
 </g>
 <text transform="translate(268.1 194.5)" x="26.947266" fill="#000000" font-family="Arial" font-size="16px" stroke="#ffffff" stroke-miterlimit="10" stroke-width=".5"><tspan fill="#ffffff" font-family="Arial" font-size="16px" text-align="end" text-anchor="end">ALTITUDE</tspan></text>
</svg>
