<?xml version="1.0" encoding="UTF-8"?>
<svg enable-background="new 0 0 375 375" version="1.1" viewBox="0 0 375 375" xmlns="http://www.w3.org/2000/svg">
 <g>
  <path d="m166.66 216.04c14.265 8.2908 28.776 7.1851 41.68 0.04l25.093 41.907c-27.06 17.317-62.119 17.148-91.783 0.053l25.01-42z" fill="#0081d4"/>
  <g transform="matrix(.094595 0 0 .098543 166.82 228.85)" fill="#fff">
   <path d="m383.61 120.31c-5.8516 4e-3 -11.688 0.58594-17.426 1.7461-4.3242-21.582-18.305-39.992-37.93-49.957-19.629-9.9648-42.742-10.387-62.719-1.1406-18.078-49.793-73.102-75.508-122.9-57.426-49.797 18.078-75.508 73.102-57.43 122.9-43.621 1.3789-78.078 37.48-77.422 81.121 0.65234 43.637 36.18 78.691 79.824 78.758h296c48.602 0 88-39.398 88-88 0-48.598-39.398-88-88-88z"/>
   <path d="m383.61 112.31c-3.832 4e-3 -7.6602 0.23438-11.465 0.69141-10.328-33.633-41.355-56.617-76.535-56.691-8.7578-0.007812-17.453 1.4453-25.73 4.2969-20.488-44.301-69.043-68.379-116.71-57.871-47.668 10.508-81.598 52.766-81.563 101.57 0.0039 8.4336 1.0547 16.836 3.1172 25.008-45.414 6.9336-77.859 47.637-74.484 93.453 3.3711 45.82 41.426 81.336 87.367 81.539h296c53.02 0 96-42.98 96-96s-42.98-96-96-96zm0 176h-296c-39.441 0.17187-71.668-31.441-72.258-70.879-0.58594-39.438 30.684-71.996 70.113-73 2.5586-0.0703 4.9297-1.3633 6.375-3.4766 1.4492-2.1133 1.7969-4.7891 0.9375-7.2031-15.879-45.441 7.7422-95.203 52.988-111.63 45.246-16.43 95.293 6.5898 112.27 51.633 0.77735 2.0898 2.3867 3.7578 4.4453 4.6094 2.0625 0.85156 4.3789 0.80469 6.4023-0.12891 8.375-3.8945 17.496-5.9141 26.73-5.9219 30.438 0.05469 56.648 21.496 62.727 51.32 0.8711 4.3359 5.0938 7.1406 9.4258 6.2656 5.2148-1.0469 10.523-1.5781 15.848-1.5859 44.184 0 80 35.82 80 80 0 44.184-35.816 80-80 80z"/>
  </g>
  <text transform="translate(268.1 194.5)" x="26.947266" fill="#000000" font-family="Arial" font-size="16px" stroke="#ffffff" stroke-miterlimit="10" stroke-width=".5"><tspan fill="#ffffff" font-family="Arial" font-size="16px" text-align="end" text-anchor="end">ALTITUDE</tspan></text>
 </g>
</svg>
