<?xml version="1.0" encoding="UTF-8"?>
<svg enable-background="new 0 0 375 375" version="1.1" viewBox="0 0 375 375" xml:space="preserve" xmlns="http://www.w3.org/2000/svg" xmlns:cc="http://creativecommons.org/ns#" xmlns:dc="http://purl.org/dc/elements/1.1/" xmlns:rdf="http://www.w3.org/1999/02/22-rdf-syntax-ns#"><metadata><rdf:RDF><cc:Work rdf:about=""><dc:format>image/svg+xml</dc:format><dc:type rdf:resource="http://purl.org/dc/dcmitype/StillImage"/><dc:title/></cc:Work></rdf:RDF></metadata>
	<circle cx="187.5" cy="187.5" r="161" fill="#232323"/><g fill="none" stroke="#fff" stroke-miterlimit="10"><g stroke-width="4">
	<line x1="187.5" x2="187.5" y1="37.4" y2="60.83"/>
	<line x1="275.73" x2="261.95" y1="66.07" y2="85.03"/>
	<line x1="330.25" x2="307.97" y1="141.12" y2="148.36"/>
	<line x1="307.97" x2="330.25" y1="226.64" y2="233.88"/>
	<line x1="275.72" x2="261.95" y1="308.93" y2="289.98"/>
	<line x1="187.5" x2="187.5" y1="337.6" y2="314.17"/>
	<line x1="99.27" x2="113.04" y1="308.93" y2="289.98"/>
	<line x1="44.75" x2="67.03" y1="233.88" y2="226.64"/>
	<line x1="44.75" x2="67.03" y1="141.12" y2="148.36"/>
	<line x1="99.27" x2="113.05" y1="66.07" y2="85.02"/></g>
	<g stroke-width="2">
	<line x1="206.31" x2="204.31" y1="38.59" y2="54.44"/>
	<line x1="224.83" x2="220.86" y1="42.12" y2="57.6"/>
	<line x1="242.75" x2="236.88" y1="47.95" y2="62.81"/>
	<line x1="259.81" x2="252.11" y1="55.97" y2="69.98"/>
	<line x1="290.25" x2="279.31" y1="78.09" y2="89.74"/>
	<line x1="303.15" x2="290.84" y1="91.83" y2="102.02"/>
	<line x1="314.23" x2="300.74" y1="107.08" y2="115.64"/>
	<line x1="323.31" x2="308.85" y1="123.6" y2="130.4"/>
	<line x1="337.29" x2="321.35" y1="178.08" y2="179.09"/>
	<line x1="334.93" x2="319.24" y1="159.38" y2="162.38"/>
	<line x1="337.29" x2="321.35" y1="196.93" y2="195.93"/>
	<line x1="334.93" x2="319.23" y1="215.63" y2="212.64"/>
	<line x1="323.3" x2="308.84" y1="251.41" y2="244.61"/>
	<line x1="314.22" x2="300.73" y1="267.93" y2="259.37"/>
	<line x1="303.14" x2="290.83" y1="283.17" y2="272.99"/>
	<line x1="290.24" x2="279.3" y1="296.92" y2="285.27"/>
	<line x1="259.8" x2="252.1" y1="319.03" y2="305.03"/>
	<line x1="242.75" x2="236.86" y1="327.05" y2="312.2"/>
	<line x1="224.82" x2="220.84" y1="332.88" y2="317.4"/>
	<line x1="206.31" x2="204.3" y1="336.41" y2="320.56"/>
	<line x1="168.68" x2="170.68" y1="336.41" y2="320.55"/>
	<line x1="150.17" x2="154.14" y1="332.88" y2="317.4"/>
	<line x1="132.24" x2="138.12" y1="327.05" y2="312.19"/>
	<line x1="115.19" x2="122.88" y1="319.02" y2="305.02"/>
	<line x1="84.75" x2="95.69" y1="296.91" y2="285.26"/>
	<line x1="71.85" x2="84.16" y1="283.17" y2="272.98"/>
	<line x1="60.77" x2="74.26" y1="267.92" y2="259.35"/>
	<line x1="51.69" x2="66.15" y1="251.4" y2="244.59"/>
	<line x1="40.06" x2="55.76" y1="215.62" y2="212.62"/>
	<line x1="37.7" x2="53.65" y1="196.92" y2="195.91"/>
	<line x1="37.7" x2="53.65" y1="178.07" y2="179.07"/>
	<line x1="40.06" x2="55.76" y1="159.37" y2="162.36"/>
	<line x1="51.69" x2="66.15" y1="123.59" y2="130.39"/>
	<line x1="60.77" x2="74.27" y1="107.07" y2="115.63"/>
	<line x1="71.85" x2="84.17" y1="91.82" y2="102.01"/>
	<line x1="84.76" x2="95.7" y1="78.08" y2="89.73"/>
	<line x1="115.19" x2="122.9" y1="55.97" y2="69.98"/>
	<line x1="132.25" x2="138.14" y1="47.94" y2="62.81"/>
	<line x1="150.18" x2="154.15" y1="42.12" y2="57.6"/>
	<line x1="168.69" x2="170.7" y1="38.59" y2="54.45"/>
	</g></g>
	<g fill="#FFFFFF" font-family="'ARIAL'">
	<g font-size="25px" stroke="#FFFFFF" stroke-miterlimit="10">
	<text transform="translate(180.71 86.315)">0</text>
	<text transform="translate(244.33 108.48)">1</text>
	<text transform="translate(286.66 148.38)">2</text>
	<text transform="translate(286.66 244.26)">3</text>
	<text transform="translate(246.08 282.73)">4</text>
	<text transform="translate(180.83 305.98)">5</text>
	<text transform="translate(114.19 283.73)">6</text>
	<text transform="translate(76.326 230.26)">7</text>
	<text transform="translate(74.326 162.73)">8</text>
	<text transform="translate(117.08 107.48)">9</text>
	</g>
	<g font-size="12px">
	<text transform="translate(197.05 68.833)">FEET</text>
	<text transform="translate(161.48 68.833)">100</text>
	</g>
</g></svg>
