<?xml version="1.0" encoding="UTF-8"?>
<svg enable-background="new 0 0 375 375" version="1.1" viewBox="0 0 375 375" xmlns="http://www.w3.org/2000/svg">
 <g>
  <path d="m166.66 216.04c14.265 8.2908 28.776 7.1851 41.68 0.04l25.093 41.907c-27.06 17.317-62.119 17.148-91.783 0.053l25.01-42z"/>
  <g transform="matrix(1.1587 0 0 1.1587 -81.403 34.625)" fill="#fff">
   <path d="m214.03 181.48c0.27698-7.3885 3.3483-12.653 9.1327-15.678 4.5217-2.3649 9.3294-2.548 10.696-2.548 0.26905 0 0.41481 7e-3 0.41481 7e-3 0.15605 7e-3 0.28266 0.1266 0.30074 0.28147 0.0169 0.15486-0.0803 0.29955-0.23063 0.34022-3.4161 0.93709-6.2671 5.2396-6.2953 5.2826-3.9237 5.6307-3.3698 10.484-2.2145 13.565 1.9376 5.1708 6.8086 8.84 10.618 9.793 1.1803 0.29507 2.383 0.44425 3.5755 0.44425 3.5813 0 6.3102-1.3519 7.4757-1.9283 0.45998-0.22839 0.64995-0.32237 0.81274-0.32237 0.17519 0 0.35831 0.17638 0.35831 0.35169 0 0.5925-3.3269 6.2344-7.9548 8.0488-2.1039 0.90884-4.7818 1.4118-7.531 1.4118-8.7528-2e-3 -18.382-5.0058-19.158-19.049zm28.549-20.398c-2e-3 -0.15025 0.0813-0.28821 0.21586-0.35713 0.13346-0.0679 0.29506-0.0543 0.41612 0.035l2.9096 2.1716 3.4389-1.1655c0.14127-0.0498 0.30062-0.0124 0.40572 0.0949 0.10615 0.10628 0.14363 0.26339 0.0949 0.40584l-1.1652 3.4388 2.1715 2.9098c0.0906 0.11987 0.10391 0.28147 0.0351 0.416-0.069 0.13453-0.22508 0.19896-0.35713 0.21598l-3.631-0.0463-2.096 2.9652c-0.0746 0.10509-0.19553 0.16609-0.32321 0.16609-0.0203 0-0.0418-1e-3 -0.0621-4e-3 -0.14824-0.0238-0.2713-0.12886-0.3154-0.27249l-1.0773-3.467-3.467-1.0785c-0.14363-0.0452-0.24979-0.16739-0.27248-0.3154-0.0238-0.148 0.0395-0.29731 0.1616-0.38432l2.9651-2.0958zm-8.0793 16.898c-1e-3 -0.0859 0.0463-0.16503 0.12318-0.20463 0.078-0.0395 0.16952-0.0305 0.23738 0.0203l1.6629 1.2413 1.9646-0.66697c0.0815-0.026 0.17177-7e-3 0.23301 0.0543 0.061 0.0611 0.0824 0.15037 0.0543 0.2317l-0.66709 1.9658 1.2413 1.6628c0.0508 0.069 0.0598 0.1616 0.0203 0.23737-0.0395 0.0758-0.13571 0.12673-0.20451 0.1233l-2.0755-0.0261-1.1984 1.6947c-0.0429 0.061-0.11195 0.0949-0.1843 0.0949-0.0113 0-0.0238 0-0.035-2e-3 -0.0848-0.0136-0.15486-0.0734-0.18087-0.15605l-0.61602-1.9815-1.9805-0.61507c-0.0813-0.0248-0.14245-0.0949-0.15605-0.18075-0.0136-0.0848 0.0226-0.16964 0.0927-0.21929l1.6945-1.1982zm13.887 8.6342c-0.0598 0.0848-0.15699 0.13465-0.25877 0.13465-0.0169 0-0.0328-1e-3 -0.0496-3e-3 -0.11869-0.0191-0.21705-0.10415-0.25334-0.21929l-0.86262-2.7774-2.7774-0.86261c-0.11526-0.0363-0.20014-0.13465-0.21929-0.25334-0.0191-0.11869 0.0317-0.23856 0.13003-0.30748l2.3752-1.6787-0.0374-2.9075c-1e-3 -0.11987 0.0656-0.2317 0.17295-0.28596 0.10616-0.0543 0.2362-0.0429 0.33242 0.0283l2.3297 1.7398 2.755-0.93367c0.11195-0.0407 0.23962-0.0102 0.32556 0.0758 0.0848 0.0859 0.11408 0.21137 0.0758 0.32557l-0.93367 2.7549 1.7398 2.331c0.0712 0.096 0.0824 0.22603 0.0281 0.33242-0.0543 0.10734-0.16279 0.17413-0.28609 0.17295l-2.9074-0.0385z" fill="#fff" stroke-width=".11822"/>
  </g>
  <text transform="translate(268.1 194.5)" x="26.947266" fill="#000000" font-family="Arial" font-size="16px" stroke="#ffffff" stroke-miterlimit="10" stroke-width=".5"><tspan fill="#ffffff" font-family="Arial" font-size="16px" text-align="end" text-anchor="end">ALTITUDE</tspan></text>
 </g>
</svg>
