<?xml version="1.0" encoding="UTF-8"?>
<svg enable-background="new 0 0 375 375" version="1.1" viewBox="0 0 375 375" xmlns="http://www.w3.org/2000/svg">
 <path d="m208.34 216.08c-2.02 1.22-4.17 2.24-6.41 3.09l13.17 8.25zm-20.81 5.75c-7.64 0-14.77-2.12-20.87-5.79l-.86 1.44 66.1 41.43c.48-.27.97-.54 1.44-.83l-8.69-14.58-34.69-21.74c-.79.04-1.61.07-2.43.07zm-30.8 10.9 55.17 34.58c3.8-1.07 7.5-2.39 11.08-3.93l-61.53-38.57zm-9.09 15.25 36.05 22.59c1.28.05 2.56.09 3.84.09 4.18 0 8.28-.29 12.31-.84l-47.48-29.76zm-5.99 10.06c6.24 3.72 12.97 6.7 20.07 8.83l-18.45-11.56zm1.62-2.73 18.45 11.56c7 2.1 14.36 3.38 21.97 3.7l-36.05-22.59zm58.66-36.14c-3.75 1.43-7.76 2.33-11.96 2.58l34.69 21.74-9.57-16.07zm-49.57 20.89 47.48 29.76c4.11-.57 8.14-1.41 12.05-2.52l-55.17-34.58zm9.08-15.25 61.53 38.57c3.07-1.32 6.05-2.82 8.94-4.47l-66.1-41.43z"/>
 <text transform="translate(268.1 194.5)" x="26.947266" fill="#000000" font-family="Arial" font-size="16px" stroke="#ffffff" stroke-miterlimit="10" stroke-width=".5"><tspan fill="#ffffff" font-family="Arial" font-size="16px" text-align="end" text-anchor="end">ALTITUDE</tspan></text>
</svg>
