<?xml version="1.0" encoding="UTF-8"?>
<svg enable-background="new 0 0 375 375" version="1.1" viewBox="0 0 375 375" xmlns="http://www.w3.org/2000/svg">
 <path d="m166.66 216.04c14.265 8.2908 28.776 7.1851 41.68 0.04l25.093 41.907c-27.06 17.317-62.119 17.148-91.783 0.053l25.01-42z" fill="#0000c3"/>
 <text transform="translate(268.1 194.5)" x="26.947266" fill="#000000" font-family="Arial" font-size="16px" stroke="#ffffff" stroke-miterlimit="10" stroke-width=".5"><tspan fill="#ffffff" font-family="Arial" font-size="16px" text-align="end" text-anchor="end">DEPTH</tspan></text>
 <g transform="matrix(.087821 .020622 -.021494 .091536 109.65 173.32)">
  <path d="m750.88 688.12s49.502 59.918 82.83 78.033c32.651 17.748 71.401 22.007 108.29 26.519 60.936 7.4539 131.38 20.176 182.5-0.50893-5.7987-59.072-3.9554-176.87-3.9554-176.87l-148.9-68.892z" fill="#ed7d33"/>
  <g transform="translate(749.65 242.31)" fill="#e23f2c">
   <path d="m376.52 550.96c1.6062-110.79 0.57514-141.65 23.511-194.99 22.544-25.208 34.837-74.448 36.817-124.54 0-0.12 0.08-0.22 0.2-0.26 25.98-7.98 53.41-12.79 78.12-24.11 0.01-0.01 0.03-0.01 0.04-0.02 35.39-23.17-16.64-41.42-36.28-48.8-0.01 0-0.01 0-0.02-0.01-12.55-3.59-25.09-7.66-37.92-10.11-0.02 0-0.05-0.01-0.08 0-5.77 0.69-2.22-18.09-3.29-22.6 0-0.02-0.01-0.03-0.01-0.05-1.15-94.48-57.25-79.33-105.99-22.52-0.08 0.1-0.22 0.13-0.33 0.08-12.76-5.59-24.79-13.19-38.43-16.76-18.33-4.18-68.36-19.29-70.84 10.14v0.03c-0.26 13.3 12.47 20.44 20.6 29.04 12.1 11.26 24.31 22.4 36.29 33.79 1.77 1.67-29.98 20.977-44.656 57.594-44.739 96.025-57.829 112.91-134.28 157.37-71.798 46-93.74 42.653-98.743 71.573 43.705 23.477 211.53-122.85 211.53-122.85s58.305 8.7763-128.7 200.89c43.549 19.881 149.26-157.41 190.8-162.34 8.3775 74.596-44.333 103.11-82.509 188.86 98.262-37.264 83.757-150.11 149.77-148.91 20.965 7.636 2.2502 150.35 34.401 149.52z" fill="#e23f2c"/>
  </g>
  <circle cx="1028.8" cy="499.9" r="45.139" fill="#fff"/>
  <circle cx="1029.7" cy="500.53" r="32.463" fill="#00000f" stroke-width="1.209"/>
  <circle cx="1118.9" cy="536.64" r="45.139" fill="#fff"/>
  <circle cx="1119.1" cy="537.07" r="32.463" fill="#00000f" stroke-width="1.209"/>
  <g fill="#eb6136">
   <ellipse cx="1066.7" cy="391.39" rx="20.001" ry="17.779"/>
   <ellipse cx="1137.8" cy="395.84" rx="20.001" ry="17.779"/>
   <ellipse cx="1110" cy="448.06" rx="20.001" ry="17.779"/>
  </g>
  <ellipse cx="1071.1" cy="611.41" rx="20.001" ry="17.779" fill="#eb5036"/>
  <ellipse cx="1000.8" cy="581.96" rx="11.876" ry="10.556" fill="#eb5036"/>
 </g>
</svg>
