<?xml version="1.0" encoding="UTF-8" standalone="no"?>
<svg xmlns:dc="http://purl.org/dc/elements/1.1/"
   xmlns:cc="http://creativecommons.org/ns#"
   xmlns:rdf="http://www.w3.org/1999/02/22-rdf-syntax-ns#"
   xmlns:svg="http://www.w3.org/2000/svg"
   xmlns="http://www.w3.org/2000/svg" version="1.1" x="0px" y="0px" viewBox="0 0 375 375" enable-background="new 0 0 375 375" xml:space="preserve" id="svg21">
   <metadata id="metadata27">
      <rdf:RDF>
         <cc:Work rdf:about="">
            <dc:format>image/svg+xml</dc:format>
            <dc:type rdf:resource="http://purl.org/dc/dcmitype/StillImage" />
            <dc:title></dc:title>
         </cc:Work>
      </rdf:RDF>
   </metadata>
   <defs id="defs25">

   </defs>
   <path id="path18" style="fill:#000000;fill-opacity:1" d="m 208.34,216.08 c -2.02,1.22 -4.17,2.24 -6.41,3.09 l 13.17,8.25 z m -20.81,5.75 c -7.64,0 -14.77,-2.12 -20.87,-5.79 l -0.86,1.44 66.1,41.43 c 0.48,-0.27 0.97,-0.54 1.44,-0.83 l -8.69,-14.58 -34.69,-21.74 c -0.79,0.04 -1.61,0.07 -2.43,0.07 z m -30.8,10.9 55.17,34.58 c 3.8,-1.07 7.5,-2.39 11.08,-3.93 l -61.53,-38.57 z m -9.09,15.25 36.05,22.59 c 1.28,0.05 2.56,0.09 3.84,0.09 4.18,0 8.28,-0.29 12.31,-0.84 l -47.48,-29.76 z m -5.99,10.06 c 6.24,3.72 12.97,6.7 20.07,8.83 l -18.45,-11.56 z m 1.62,-2.73 18.45,11.56 c 7,2.1 14.36,3.38 21.97,3.7 l -36.05,-22.59 z m 58.66,-36.14 c -3.75,1.43 -7.76,2.33 -11.96,2.58 l 34.69,21.74 -9.57,-16.07 z m -49.57,20.89 47.48,29.76 c 4.11,-0.57 8.14,-1.41 12.05,-2.52 l -55.17,-34.58 z m 9.08,-15.25 61.53,38.57 c 3.07,-1.32 6.05,-2.82 8.94,-4.47 l -66.1,-41.43 z" />
   <text id="alt_depth" style="font-style:normal;font-variant:normal;font-weight:normal;font-stretch:normal;font-size:16px;font-family:Arial;-inkscape-font-specification:Arial;fill:#000000;fill-opacity:1;stroke:#ffffff;stroke-width:0.5;stroke-miterlimit:10" transform="translate(268.0971,194.5012)" x="26.947266" y="0">
      <tspan style="font-style:normal;font-variant:normal;font-weight:normal;font-stretch:normal;font-size:16px;font-family:Arial;-inkscape-font-specification:Arial;text-align:end;text-anchor:end;fill:#ffffff;fill-opacity:1" id="tspan851">ALTITUDE</tspan>
   </text>
</svg>
