<?xml version="1.0" encoding="utf-8"?>
<svg version="1.1"
	xmlns="http://www.w3.org/2000/svg"
	xmlns:xlink="http://www.w3.org/1999/xlink" x="0px" y="0px" viewBox="0 0 375 375" enable-background="new 0 0 375 375" xml:space="preserve">
	<g id="altimeter_hatch">
		<path fill="none" d="M161.44,224.81l61.53,38.57c3.07-1.32,6.05-2.82,8.94-4.47l-66.1-41.43L161.44,224.81z"/>
		<path fill="none" d="M152.36,240.06l47.48,29.76c4.11-0.57,8.14-1.41,12.05-2.52l-55.17-34.58L152.36,240.06z"/>
		<path fill="none" d="M201.93,219.17c-3.75,1.43-7.76,2.33-11.96,2.58l34.69,21.74l-9.57-16.07L201.93,219.17z"/>
		<path fill="none" d="M143.27,255.31l18.45,11.56c7,2.1,14.36,3.38,21.97,3.7l-36.05-22.59L143.27,255.31z"/>
		<path fill="#FFFFFF" d="M141.65,258.04c6.24,3.72,12.97,6.7,20.07,8.83l-18.45-11.56L141.65,258.04z"/>
		<path fill="#FFFFFF" d="M147.64,247.98l36.05,22.59c1.28,0.05,2.56,0.09,3.84,0.09c4.18,0,8.28-0.29,12.31-0.84l-47.48-29.76 L147.64,247.98z"/>
		<path fill="#FFFFFF" d="M156.73,232.73l55.17,34.58c3.8-1.07,7.5-2.39,11.08-3.93l-61.53-38.57L156.73,232.73z"/>
		<path fill="#FFFFFF" d="M187.53,221.83c-7.64,0-14.77-2.12-20.87-5.79l-0.86,1.44l66.1,41.43c0.48-0.27,0.97-0.54,1.44-0.83 l-8.69-14.58l-34.69-21.74C189.17,221.8,188.35,221.83,187.53,221.83z"/>
		<path fill="#FFFFFF" d="M208.34,216.08c-2.02,1.22-4.17,2.24-6.41,3.09l13.17,8.25L208.34,216.08z"/>
	</g>
	<text id="alt_depth" style="font-style:normal;font-variant:normal;font-weight:normal;font-stretch:normal;font-size:16px;font-family:Arial;-inkscape-font-specification:Arial;fill:#000000;fill-opacity:1;stroke:#ffffff;stroke-width:0.5;stroke-miterlimit:10" transform="translate(268.0971,194.5012)" x="26.947266" y="0">
		<tspan style="font-style:normal;font-variant:normal;font-weight:normal;font-stretch:normal;font-size:16px;font-family:Arial;-inkscape-font-specification:Arial;text-align:end;text-anchor:end;fill:#ffffff;fill-opacity:1" id="tspan851">ALTITUDE</tspan>
	</text>
</svg>
