<?xml version="1.0" encoding="utf-8"?>
<!-- Generator: Adobe Illustrator 25.2.1, SVG Export Plug-In . SVG Version: 6.00 Build 0)  -->
<svg version="1.1" xmlns="http://www.w3.org/2000/svg" xmlns:xlink="http://www.w3.org/1999/xlink" x="0px" y="0px"
	 viewBox="0 0 375 375" style="enable-background:new 0 0 375 375;" xml:space="preserve">
<filter  filterUnits="objectBoundingBox" id="AI_Shadow_1">
	<feGaussianBlur  in="SourceAlpha" result="blur" stdDeviation="5"></feGaussianBlur>
	<feOffset  dx="0" dy="0" in="blur" result="offsetBlurredAlpha"></feOffset>
	<feMerge>
		<feMergeNode  in="offsetBlurredAlpha"></feMergeNode>
		<feMergeNode  in="SourceGraphic"></feMergeNode>
	</feMerge>
</filter>
<g id="horizon_circle">
	<linearGradient id="SVGID_1_" gradientUnits="userSpaceOnUse" x1="187.6388" y1="337.1002" x2="187.6388" y2="37.567">
		<stop  offset="0.4999" style="stop-color:#503723"/>
		<stop  offset="0.5001" style="stop-color:#558EBB"/>
	</linearGradient>
	<path style="fill:url(#SVGID_1_);filter:url(#AI_Shadow_1);" d="M187.64,37.57c-82.71,0-149.77,67.05-149.77,149.77
		S104.92,337.1,187.64,337.1s149.77-67.05,149.77-149.77S270.35,37.57,187.64,37.57z M187.64,287.67
		c-55.41,0-100.33-44.92-100.33-100.33C87.31,131.92,132.23,87,187.64,87c55.41,0,100.33,44.92,100.33,100.33
		C287.97,242.75,243.05,287.67,187.64,287.67z"/>
	<line style="fill:none;stroke:#FFFFFF;stroke-width:4;stroke-miterlimit:10;" x1="37.64" y1="187.5" x2="87.31" y2="187.5"/>
	<line style="fill:none;stroke:#FFFFFF;stroke-width:4;stroke-miterlimit:10;" x1="287.72" y1="187.5" x2="337.41" y2="187.5"/>
	<line style="fill:none;stroke:#FFFFFF;stroke-width:4;stroke-miterlimit:10;" x1="65.39" y1="118.75" x2="99.05" y2="139.08"/>
	<line style="fill:none;stroke:#FFFFFF;stroke-width:4;stroke-miterlimit:10;" x1="275.72" y1="139.08" x2="310.56" y2="118.75"/>
	<line style="fill:none;stroke:#FFFFFF;stroke-width:4;stroke-miterlimit:10;" x1="136.39" y1="100.92" x2="116.39" y2="66.42"/>
	<line style="fill:none;stroke:#FFFFFF;stroke-width:4;stroke-miterlimit:10;" x1="239.06" y1="100.92" x2="259.72" y2="66.42"/>
	<polygon style="fill:#FFFFFF;" points="172.89,47.25 202.22,47.25 187.56,86.09 		"/>
	<polygon style="fill:#FFFFFF;" points="106.06,104.58 99.05,111.42 113.56,118.75 		"/>
	<polygon style="fill:#FFFFFF;" points="261.06,118.75 268.22,104.58 275.72,111.67 		"/>
</g>
</svg>
