<?xml version="1.0" encoding="UTF-8"?>
<svg width="375" height="570" enable-background="new 0 0 375 570" version="1.1" viewBox="0 0 375 570" xmlns="http://www.w3.org/2000/svg">
 <rect x="85" width="205" height="285" fill="#0081d4"/>
 <rect x="85" y="285" width="205" height="285" fill="#3d2618"/>
 <line x1="85" x2="290" y1="285" y2="285" fill="none" stroke="#fff" stroke-width="2"/>
 <g fill="#ffffff" font-family="Arimo, monospace" font-size="12px">
  <text x="213" y="20">90</text>
  <text x="150" y="20">90</text>
  <text x="222" y="45">80</text>
  <text x="140" y="45">80</text>
  <text x="213" y="75">70</text>
  <text x="150" y="75">70</text>
  <text x="222" y="110">60</text>
  <text x="140" y="110">60</text>
  <text x="213" y="140">50</text>
  <text x="150" y="140">50</text>
  <text x="222" y="170">40</text>
  <text x="140" y="170">40</text>
  <text x="213" y="200">30</text>
  <text x="150" y="200">30</text>
  <text x="222" y="230">20</text>
  <text x="140" y="230">20</text>
  <text x="213" y="260">10</text>
  <text x="150" y="260">10</text>
  <text x="213" y="320">10</text>
  <text x="150" y="320">10</text>
  <text x="222" y="350">20</text>
  <text x="140" y="350">20</text>
  <text x="213" y="380">30</text>
  <text x="150" y="380">30</text>
  <text x="222" y="410">40</text>
  <text x="140" y="410">40</text>
  <text x="213" y="440">50</text>
  <text x="150" y="440">50</text>
  <text x="222" y="470">60</text>
  <text x="140" y="470">60</text>
  <text x="213" y="500">70</text>
  <text x="150" y="500">70</text>
  <text x="222" y="530">80</text>
  <text x="140" y="530">80</text>
  <text x="213" y="560">90</text>
  <text x="150" y="560">90</text>
 </g>
 <g fill="none" stroke="#fff" stroke-width="2">
  <line x1="208" x2="167" y1="15" y2="15"/>
  <line x1="200" x2="175" y1="30" y2="30"/>
  <line x1="217" x2="158" y1="45" y2="45"/>
  <line x1="200" x2="175" y1="60" y2="60"/>
  <line x1="208" x2="167" y1="75" y2="75"/>
  <line x1="200" x2="175" y1="90" y2="90"/>
  <line x1="217" x2="158" y1="105" y2="105"/>
  <line x1="200" x2="175" y1="120" y2="120"/>
  <line x1="208" x2="167" y1="135" y2="135"/>
  <line x1="200" x2="175" y1="150" y2="150"/>
  <line x1="217" x2="158" y1="165" y2="165"/>
  <line x1="200" x2="175" y1="180" y2="180"/>
  <line x1="208" x2="167" y1="195" y2="195"/>
  <line x1="200" x2="175" y1="210" y2="210"/>
  <line x1="217" x2="158" y1="225" y2="225"/>
  <line x1="200" x2="175" y1="240" y2="240"/>
  <line x1="208" x2="167" y1="255" y2="255"/>
  <line x1="200" x2="175" y1="270" y2="270"/>
  <line x1="200" x2="175" y1="300" y2="300"/>
  <line x1="208" x2="167" y1="315" y2="315"/>
  <line x1="200" x2="175" y1="330" y2="330"/>
  <line x1="217" x2="158" y1="345" y2="345"/>
  <line x1="200" x2="175" y1="360" y2="360"/>
  <line x1="208" x2="167" y1="375" y2="375"/>
  <line x1="200" x2="175" y1="390" y2="390"/>
  <line x1="217" x2="158" y1="405" y2="405"/>
  <line x1="200" x2="175" y1="420" y2="420"/>
  <line x1="208" x2="167" y1="435" y2="435"/>
  <line x1="200" x2="175" y1="450" y2="450"/>
  <line x1="217" x2="158" y1="465" y2="465"/>
  <line x1="200" x2="175" y1="480" y2="480"/>
  <line x1="208" x2="167" y1="495" y2="495"/>
  <line x1="200" x2="175" y1="510" y2="510"/>
  <line x1="217" x2="158" y1="525" y2="525"/>
  <line x1="200" x2="175" y1="540" y2="540"/>
  <line x1="208" x2="167" y1="555" y2="555"/>
 </g>
</svg>
