<?xml version="1.0" encoding="UTF-8"?>
<svg enable-background="new 0 0 375 375" version="1.1" viewBox="0 0 375 375" xmlns="http://www.w3.org/2000/svg">
 <circle cx="187.5" cy="187.5" r="161" fill="#232323"/>
 <g fill="none" stroke="#fff" stroke-miterlimit="10" stroke-width="2">
  <line x1="187.5" x2="187.5" y1="337.6" y2="314.17"/>
  <line x1="200.58" x2="199.19" y1="337.03" y2="321.11"/>
  <line x1="226.35" x2="222.21" y1="332.48" y2="317.05"/>
  <line x1="250.93" x2="244.18" y1="323.54" y2="309.05"/>
  <line x1="273.59" x2="264.43" y1="310.45" y2="297.36"/>
  <line x1="293.64" x2="282.34" y1="293.64" y2="282.34"/>
  <line x1="310.46" x2="297.36" y1="273.59" y2="264.43"/>
  <line x1="323.54" x2="309.05" y1="250.94" y2="244.18"/>
  <line x1="332.49" x2="317.05" y1="226.35" y2="222.21"/>
  <line x1="337.03" x2="321.11" y1="200.58" y2="199.19"/>
  <line x1="337.03" x2="321.11" y1="174.42" y2="175.81"/>
  <line x1="332.49" x2="317.05" y1="148.65" y2="152.79"/>
  <line x1="323.54" x2="309.06" y1="124.06" y2="130.82"/>
  <line x1="310.46" x2="297.37" y1="101.41" y2="110.57"/>
  <line x1="293.64" x2="282.34" y1="81.36" y2="92.66"/>
  <line x1="273.6" x2="264.43" y1="64.54" y2="77.64"/>
  <line x1="250.94" x2="244.19" y1="51.46" y2="65.95"/>
  <line x1="226.35" x2="222.22" y1="42.51" y2="57.95"/>
  <line x1="200.59" x2="199.19" y1="37.97" y2="53.89"/>
  <line x1="174.42" x2="175.81" y1="37.97" y2="53.89"/>
  <line x1="148.65" x2="152.79" y1="42.51" y2="57.95"/>
  <line x1="124.07" x2="130.82" y1="51.46" y2="65.94"/>
  <line x1="101.41" x2="110.58" y1="64.54" y2="77.63"/>
  <line x1="81.37" x2="92.67" y1="81.36" y2="92.66"/>
  <line x1="64.55" x2="77.64" y1="101.4" y2="110.57"/>
  <line x1="51.46" x2="65.95" y1="124.06" y2="130.81"/>
  <line x1="42.52" x2="57.95" y1="148.65" y2="152.78"/>
  <line x1="37.97" x2="53.89" y1="174.41" y2="175.81"/>
  <line x1="37.97" x2="53.89" y1="200.58" y2="199.19"/>
  <line x1="42.51" x2="57.95" y1="226.35" y2="222.21"/>
  <line x1="51.46" x2="65.94" y1="250.93" y2="244.18"/>
  <line x1="64.54" x2="77.63" y1="273.59" y2="264.42"/>
  <line x1="81.36" x2="92.66" y1="293.63" y2="282.33"/>
  <line x1="101.4" x2="110.57" y1="310.45" y2="297.36"/>
  <line x1="124.06" x2="130.81" y1="323.54" y2="309.05"/>
  <line x1="148.65" x2="152.78" y1="332.49" y2="317.05"/>
  <line x1="174.41" x2="175.81" y1="337.03" y2="321.11"/>
  <line x1="213.56" x2="209.5" y1="335.32" y2="312.24"/>
  <line x1="238.84" x2="230.82" y1="328.55" y2="306.53"/>
  <line x1="262.55" x2="250.83" y1="317.49" y2="297.2"/>
  <line x1="283.98" x2="268.92" y1="302.48" y2="284.53"/>
  <line x1="302.48" x2="284.53" y1="283.98" y2="268.92"/>
  <line x1="317.49" x2="297.2" y1="262.55" y2="250.83"/>
  <line x1="328.55" x2="306.53" y1="238.84" y2="230.82"/>
  <line x1="335.32" x2="312.24" y1="213.56" y2="209.5"/>
  <line x1="337.6" x2="314.17" y1="187.5" y2="187.5"/>
  <line x1="335.32" x2="312.24" y1="161.44" y2="165.5"/>
  <line x1="328.55" x2="306.53" y1="136.16" y2="144.18"/>
  <line x1="317.49" x2="297.2" y1="112.45" y2="124.17"/>
  <line x1="302.48" x2="284.53" y1="91.02" y2="106.08"/>
  <line x1="283.98" x2="268.92" y1="72.52" y2="90.47"/>
  <line x1="262.55" x2="250.84" y1="57.51" y2="77.8"/>
  <line x1="238.84" x2="230.82" y1="46.45" y2="68.47"/>
  <line x1="213.57" x2="209.5" y1="39.68" y2="62.76"/>
  <line x1="187.5" x2="187.5" y1="37.4" y2="60.83"/>
  <line x1="161.44" x2="165.51" y1="39.68" y2="62.76"/>
  <line x1="136.16" x2="144.18" y1="46.45" y2="68.47"/>
  <line x1="112.45" x2="124.17" y1="57.51" y2="77.8"/>
  <line x1="91.02" x2="106.08" y1="72.52" y2="90.47"/>
  <line x1="72.52" x2="90.47" y1="91.02" y2="106.08"/>
  <line x1="57.51" x2="77.8" y1="112.45" y2="124.17"/>
  <line x1="46.45" x2="68.47" y1="136.16" y2="144.18"/>
  <line x1="39.68" x2="62.76" y1="161.43" y2="165.5"/>
  <line x1="37.4" x2="60.83" y1="187.5" y2="187.5"/>
  <line x1="39.68" x2="62.76" y1="213.56" y2="209.49"/>
  <line x1="46.45" x2="68.47" y1="238.84" y2="230.82"/>
  <line x1="57.51" x2="77.8" y1="262.55" y2="250.83"/>
  <line x1="72.52" x2="90.47" y1="283.98" y2="268.92"/>
  <line x1="91.02" x2="106.08" y1="302.48" y2="284.53"/>
  <line x1="112.45" x2="124.17" y1="317.49" y2="297.19"/>
  <line x1="136.16" x2="144.18" y1="328.55" y2="306.53"/>
  <line x1="161.44" x2="165.5" y1="335.32" y2="312.24"/>
 </g>
 <g font-family="Arial" stroke="#fff">
  <g font-size="32px">
   <text x="176.61653" y="89.705055" style="line-height:1.25" xml:space="preserve"><tspan x="176.61653" y="89.705055" fill="#ffffff" stroke="#ffffff">N</tspan></text>
   <text x="176.46754" y="308.19373" style="line-height:1.25" xml:space="preserve"><tspan x="176.46754" y="308.19373" fill="#ffffff" stroke="#ffffff">S</tspan></text>
   <text transform="rotate(90)" x="177.02315" y="-285.52545" style="line-height:1.25" xml:space="preserve"><tspan x="177.02315" y="-285.52545" fill="#ffffff" stroke="#ffffff">E</tspan></text>
   <text transform="rotate(-90)" x="-202.91194" y="89.983864" style="line-height:1.25" xml:space="preserve"><tspan x="-202.91194" y="89.983864" fill="#ffffff" stroke="#ffffff">W</tspan></text>
  </g>
  <g font-size="24px">
   <g>
    <text transform="rotate(-56.2)" x="-72.94368" y="161.69772" style="line-height:1.25" xml:space="preserve"><tspan x="-72.94368" y="161.69772" fill="#ffffff" font-size="24px" stroke="#ffffff">30</tspan></text>
    <text transform="rotate(123.8)" x="28.362743" y="-360.79129" style="line-height:1.25" xml:space="preserve"><tspan x="28.362743" y="-360.79129" fill="#ffffff" font-size="24px" stroke="#ffffff">12</tspan></text>
    <text transform="rotate(238.8)" x="-268.61453" y="-35.785168" style="line-height:1.25" xml:space="preserve"><tspan x="-268.61453" y="-35.785168" fill="#ffffff" font-size="24px" stroke="#ffffff">24</tspan></text>
   </g>
   <text transform="rotate(61.8)" x="243.4901" y="-174.64015" fill="#ffffff" style="line-height:1.25" xml:space="preserve"><tspan x="243.4901" y="-174.64015">6</tspan><tspan x="243.4901" y="-144.64015"/></text>
   <g>
    <text transform="rotate(-26.2)" x="65.779373" y="151.47417" style="line-height:1.25" xml:space="preserve"><tspan x="65.779373" y="151.47417" fill="#ffffff" font-size="24px" stroke="#ffffff">33</tspan></text>
    <text transform="rotate(150.8)" x="-87.736298" y="-354.24545" style="line-height:1.25" xml:space="preserve"><tspan x="-87.736298" y="-354.24545" fill="#ffffff" font-size="24px" stroke="#ffffff">15</tspan></text>
    <text transform="rotate(210.8)" x="-273.42953" y="-165.65503" style="line-height:1.25" xml:space="preserve"><tspan x="-273.42953" y="-165.65503" fill="#ffffff" font-size="24px" stroke="#ffffff">21</tspan></text>
    <text transform="rotate(33.8)" x="244.31886" y="-49.926029" style="line-height:1.25" xml:space="preserve"><tspan x="244.31886" y="-49.926029" fill="#ffffff" font-size="24px" stroke="#ffffff">3</tspan></text>
   </g>
  </g>
 </g>
</svg>
