<?xml version="1.0" encoding="UTF-8"?>
<svg enable-background="new 0 0 375 375" version="1.1" viewBox="0 0 375 375" xmlns="http://www.w3.org/2000/svg">
 <filter>
  <feGaussianBlur in="SourceAlpha" result="blur" stdDeviation="5"/>
  <feOffset dx="0" dy="0" in="blur" result="offsetBlurredAlpha"/>
  <feMerge>
   <feMergeNode in="offsetBlurredAlpha"/>
   <feMergeNode in="SourceGraphic"/>
  </feMerge>
 </filter>
 <path d="m187.47 126.81s-4.15 6.85-6.65 14.58-4.2 30.27-4.2 30.27l-31.95 23.16s-7.98 5.01-9.61 9.19c-0.56 1.45-0.88 3.45-0.95 4.63-0.13 2.17 0 8.1 0 8.1 0.07 1.25 0.88 2.28 3.54 1.4 2.65-0.88 40.95-13.63 40.95-13.63l1.62 31.97s-9.85 7.63-12.89 10.46c-0.73 0.68-1.8 1.63-2.39 2.87-0.62 1.29-0.68 3.26-0.7 4.27-0.02 1.44-0.08 4.8 0.11 5.34 0.29 0.85 0.63 1.13 1.85 1.13 1.55 0 7.62-3.38 7.62-3.38l11.05-5.45 2.55 7.22-2.55-7.22 2.55 7.22h0.1l2.55-7.22 11.05 5.45s6.07 3.38 7.62 3.38c1.22 0 1.55-0.28 1.85-1.13 0.19-0.54 0.13-3.9 0.11-5.34-0.02-1.01-0.08-2.98-0.7-4.27-0.59-1.24-1.67-2.2-2.39-2.87-3.04-2.83-12.89-10.46-12.89-10.46l1.62-31.97s38.3 12.74 40.95 13.63c2.65 0.88 3.46-0.15 3.54-1.4 0 0 0.13-5.93 0-8.1-0.07-1.18-0.38-3.17-0.95-4.63-1.62-4.18-9.61-9.19-9.61-9.19l-31.95-23.16s-1.69-22.54-4.2-30.27c-2.5-7.73-6.65-14.58-6.65-14.58v-12.03" fill="none" stroke="#FF2A00" stroke-miterlimit="10" stroke-width="3"/>
 <g fill="#FF2A00">
  <polygon points="187.51 319.64 181.68 331.77 193.68 331.77"/>
  <polygon points="55.43 187.72 43.43 181.94 43.43 193.81"/>
  <polygon points="319.45 187.62 331.57 193.46 331.57 181.46"/>
  <polygon points="187.75 55.36 193.59 43.23 181.59 43.23"/>
 </g>
</svg>
