<?xml version="1.0" encoding="UTF-8"?>
<svg enable-background="new 0 0 375 375" version="1.1" viewBox="0 0 375 375" xmlns="http://www.w3.org/2000/svg">
 <g transform="rotate(11.7 590.37 1897.3)">
  <g clip-rule="evenodd" fill-rule="evenodd">
   <ellipse transform="matrix(.2028 -.9792 .9792 .2028 -418.58 95.042)" cx="-150.92" cy="304.59" rx="10" ry="10" fill="#004000" stroke="#008000" stroke-linecap="round" stroke-linejoin="round"/>
   <g fill="#0f0">
    <path d="m-200.36 152.42 49.44 152.17-33.27-156.5-16.17 4.33z" fill-opacity=".5647"/>
    <path d="m-230.92 166.03 80 138.56-65.08-146.17-14.92 7.61z" fill-opacity=".4392"/>
    <path d="m-216 158.42 65.08 146.17-49.44-152.17-15.64 6z" fill-opacity=".502"/>
    <path d="m-244.96 175.15 94.05 129.44-80-138.56-14.05 9.12z" fill-opacity=".3765"/>
    <path d="m-150.92 304.59-107.06-118.9 13.02-10.54 94.04 129.44z" fill-opacity=".3137"/>
    <path d="m-269.82 197.53 118.9 107.06-107.06-118.9-11.84 11.84z" fill-opacity=".251"/>
    <path d="m-289.48 224.59 138.56 80-129.44-94.05-9.12 14.05z" fill-opacity=".1255"/>
    <path d="m-280.36 210.55 129.44 94.05-118.9-107.06-10.54 13.01z" fill-opacity=".1882"/>
    <path d="m-150.92 304.59-146.17-65.08 7.6-14.92 138.57 80z" fill-opacity=".0627"/>
   </g>
  </g>
  <path d="m-184.18 148.09 31.19 146.73" fill="none" stroke="#008000" stroke-linecap="round" stroke-linejoin="round"/>
  <path d="m-184.18 148.09 33.27 156.5" fill="none" stroke="#0f0" stroke-linecap="round" stroke-linejoin="round" stroke-width="2"/>
 </g>
</svg>
