<?xml version="1.0" encoding="utf-8"?>
<svg version="1.1"
	xmlns="http://www.w3.org/2000/svg"
	xmlns:xlink="http://www.w3.org/1999/xlink" x="0px" y="0px" viewBox="0 0 375 375" style="enable-background:new 0 0 375 375;" xml:space="preserve">
	<g id="radar_beam" transform="rotate(11.7,590.36673,1897.3041)">

		<ellipse id="circle4170" transform="matrix(0.2028 -0.9792 0.9792 0.2028 -418.5767 95.0416)" style="fill-rule:evenodd;clip-rule:evenodd;fill:#004000;stroke:#008000;stroke-linecap:round;stroke-linejoin:round;" cx="-150.92" cy="304.59" rx="10" ry="10"/>
		<path id="path4617" style="fill-rule:evenodd;clip-rule:evenodd;fill:#00FF00;fill-opacity:0.5647;" d="M-200.36,152.42
			l49.44,152.17l-33.27-156.5L-200.36,152.42z"/>
		<path id="path4613" style="fill-rule:evenodd;clip-rule:evenodd;fill:#00FF00;fill-opacity:0.4392;" d="M-230.92,166.03l80,138.56
			L-216,158.42L-230.92,166.03z"/>
		<path id="path4615" style="fill-rule:evenodd;clip-rule:evenodd;fill:#00FF00;fill-opacity:0.502;" d="M-216,158.42l65.08,146.17
			l-49.44-152.17L-216,158.42z"/>
		<path id="path4611" style="fill-rule:evenodd;clip-rule:evenodd;fill:#00FF00;fill-opacity:0.3765;" d="M-244.96,175.15
			l94.05,129.44l-80-138.56L-244.96,175.15z"/>
		<path id="path4609" style="fill-rule:evenodd;clip-rule:evenodd;fill:#00FF00;fill-opacity:0.3137;" d="M-150.92,304.59
			l-107.06-118.9l13.02-10.54L-150.92,304.59z"/>
		<path id="path4607" style="fill-rule:evenodd;clip-rule:evenodd;fill:#00FF00;fill-opacity:0.251;" d="M-269.82,197.53
			l118.9,107.06l-107.06-118.9L-269.82,197.53z"/>
		<path id="path4603" style="fill-rule:evenodd;clip-rule:evenodd;fill:#00FF00;fill-opacity:0.1255;" d="M-289.48,224.59l138.56,80
			l-129.44-94.05L-289.48,224.59z"/>
		<path id="path4605" style="fill-rule:evenodd;clip-rule:evenodd;fill:#00FF00;fill-opacity:0.1882;" d="M-280.36,210.55
			l129.44,94.05l-118.9-107.06L-280.36,210.55z"/>
		<path id="path4601" style="fill-rule:evenodd;clip-rule:evenodd;fill:#00FF00;fill-opacity:0.0627;" d="M-150.92,304.59
			l-146.17-65.08l7.6-14.92L-150.92,304.59z"/>
		<path id="path4330" style="fill:none;stroke:#008000;stroke-linecap:round;stroke-linejoin:round;" d="M-184.18,148.09
			l31.19,146.73"/>
		<path id="path4619" style="fill:none;stroke:#00FF00;stroke-width:2;stroke-linecap:round;stroke-linejoin:round;" d="
			M-184.18,148.09l33.27,156.5"/>
	</g>
</svg>
