<?xml version="1.0" encoding="utf-8"?>
<!-- Generator: Adobe Illustrator 23.0.0, SVG Export Plug-In . SVG Version: 6.00 Build 0)  -->
<svg version="1.1" id="Layer_1" xmlns="http://www.w3.org/2000/svg" xmlns:xlink="http://www.w3.org/1999/xlink" x="0px" y="0px"
	 viewBox="0 0 460.7 460.7" style="enable-background:new 0 0 460.7 460.7;" xml:space="preserve">
<style type="text/css">
	.st0{fill:#004DBC;}
	.st1{fill:#DD691B;}
	.st2{fill:#FFFFFF;}
</style>
<path class="st0" d="M231,0C103.5,0,0,103.1,0,230.2C0,357,103.1,460.5,229.7,460.7c127.2,0.1,230.9-103,231-229.7
	C460.7,103.7,357.7,0,231,0z M230.9,433.6C118.7,434.1,27.4,343,27.1,230.4c-0.3-112,90.4-202.8,203.1-203.3
	C341,26.6,433,117.6,433.6,228.2C434.3,341.5,343.8,433.1,230.9,433.6z"/>
<g>
	<g>
		<path class="st1" d="M234.6,48C133.6,46.3,49.9,125.9,48,225.3c-1.8,101.4,77.6,185.1,177.1,187.4
			C327,415,410.4,335.1,412.5,235.3C414.7,133.3,334.9,49.7,234.6,48z M372.9,253.8c-0.8,1.3-4.6,0.9-7.1,1.3
			c-0.2,0-0.3-0.1-0.5-0.1c-9.7-4.5-11.8-6.2-18.6,8.1c-3.6,7.5-7.7,14.8-12,21.8c-6.7,10.7-16.7,15.9-29.3,16.1
			c-0.8,0-1.7,0.1-2.5,0.2c-0.2,0-0.3,0.1-1.2,0.6c0.7,2.7,1.2,5.8,2.3,8.6c1.5,3.9-0.4,5.6-3.7,5.5c-3.5-0.1-7-1.4-10.6-2.1
			c2.1,6.5,6.7,10.9,13.7,12.8c5.3,1.5,10.7,2.5,16,4.1c4.8,1.4,6.8,4.8,5.1,8.6c-0.7,1.6-2.5,3.3-4.1,3.7
			c-10,2.2-20.1,2.9-30.2,0.8c-19.1-3.9-29.7-16.6-35.3-34.4c-0.8-2.6-1.6-5.3-2.4-8c-0.3,0-0.6,0-0.8,0c-0.2,3.1-0.5,6.2-0.6,9.3
			c-0.1,2.7,0,5.3-0.2,8c-0.3,3.6-0.1,8.6-4.5,8.9c-3.4,0.3-8.2-1.7-10.3-4.3c-3.3-4.1-5-9.6-7.2-14.6c-0.9-2.1-1.2-4.4-2.2-8.2
			c-1.8,3.6-2.8,6.1-4.2,8.4c-3.7,5.7-7.3,11.5-11.4,16.9c-2.2,2.8-5.7,4.4-9.3,2c-3.4-2.3-4.5-5.4-3.1-9.5c1.3-3.9,1.8-8,1.6-12.3
			c-2.3,5.1-4.4,10.2-6.8,15.2c-10,20.3-35.2,34.5-56.7,31.9c-4.8-0.6-11-1.1-11.6-6.7s5.7-6.4,9.9-8c4.2-1.5,8.6-2.6,12.8-4.1
			c11.7-4.4,22.1-17,19.9-29.7c-1.8,1.7-3.1,3.3-4.8,4.5c-2.8,2-5.7,4.2-8.9,5.3c-4.7,1.6-7.1-0.8-6.5-5.7c0.5-4.1,0.7-8.2,1-12
			c-0.9-0.4-1.2-0.7-1.5-0.7c-16.9,1.4-26.3-8.2-32.5-22.2c-3.1-7-5.3-14.4-7.8-21.6c-2.3-6.6-4-7.6-10.7-6.1
			c-2.6,0.6-5.2,1.4-7.8,1.8c-5.7,0.7-8.6-2.8-6.8-8.3c0.6-2,1.7-4,3.1-5.6c9.9-11.6,30.6-9.8,38,3.4c2.4,4.3,4.2,9.1,6.3,13.6
			c1.2,2.6,2.2,5.2,3.6,7.7c5.5,9.8,16.6,11,23.8,2.4c5.9-7.1,7.4-15.9,7.9-24.8c0.1-1.5-1.9-3.3-3.2-4.6
			c-17.5-16.1-28-35.7-27.9-59.8c0-30.9,14.9-54,40.3-70.5c38.9-25.4,93.5-21.5,127.6,8.7c40.1,35.6,37.9,93.5-4.8,126.1
			c-8.5,6.5-8.5,6.5-5.3,17c0.9,3,2,6,3.3,8.9c4.6,10.4,17.2,13.2,25.9,5.5c3.3-3,5.8-6.8,8.6-10.3c3.7-4.5,7-9.4,11.1-13.5
			c7.6-7.7,19.2-8.8,27.9-3c2,1.4,4.2,3.2,5.1,5.3C373.6,248.4,374,251.9,372.9,253.8z M301,167.5c-0.1-9.4-7.5-16.6-17-16.5
			c-9.2,0.1-16.8,7.8-16.7,17c0.1,9.2,7.9,16.7,17.1,16.6C293.8,184.5,301.1,176.9,301,167.5z M180.9,150.9
			c-9.4-0.1-16.9,7.3-17,16.7c-0.1,9.2,7.6,17,16.7,17c9.3,0,16.9-7.5,17-16.7C197.8,158.6,190.2,151,180.9,150.9z M231.7,188.1
			c-11.7-0.2-21.7,9.5-21.8,21.4s9.5,21.8,21.3,21.8c12.1,0,21.6-9.3,21.7-21.4C253.1,197.9,243.8,188.3,231.7,188.1z M231.2,223.1
			c-7.5,0-13.3-5.9-13.2-13.3c0.1-7.5,6-13.2,13.5-13.1c7.1,0.1,12.9,6,13,13.1C244.6,217.2,238.7,223.1,231.2,223.1z"/>
	</g>
</g>
<g>
	<g>
		<path class="st2" d="M230.2,27.1C117.6,27.7,26.9,118.5,27.1,230.4c0.3,112.6,91.6,203.7,203.8,203.2
			c112.9-0.5,203.3-92.2,202.7-205.4C433,117.6,341,26.6,230.2,27.1z M225.1,412.7c-99.4-2.3-178.9-86-177.1-187.4
			c1.8-99.5,85.5-179,186.5-177.3c100.3,1.7,180.2,85.3,178,187.3C410.4,335.1,327,415.1,225.1,412.7z M231.5,196.7
			c-7.5-0.1-13.4,5.6-13.5,13.1c-0.1,7.4,5.8,13.3,13.2,13.3c7.5,0,13.4-5.9,13.3-13.3C244.4,202.7,238.6,196.8,231.5,196.7z
			 M367.5,240.8c-8.7-5.8-20.3-4.8-27.9,3c-4.1,4.1-7.4,9-11.1,13.5c-2.8,3.5-5.3,7.3-8.6,10.3c-8.6,7.7-21.3,4.9-25.9-5.5
			c-1.3-2.9-2.4-5.9-3.3-8.9c-3.2-10.5-3.1-10.5,5.3-17c42.7-32.6,44.9-90.5,4.8-126.1c-34-30.2-88.6-34.1-127.6-8.7
			c-25.4,16.5-40.3,39.6-40.3,70.5c0,24,10.5,43.6,27.9,59.8c1.4,1.3,3.3,3.1,3.2,4.6c-0.6,8.9-2,17.7-7.9,24.8
			c-7.2,8.7-18.3,7.5-23.8-2.4c-1.4-2.5-2.4-5.1-3.6-7.7c-2.1-4.5-3.8-9.3-6.3-13.6c-7.5-13.2-28.2-15.1-38-3.4
			c-1.4,1.6-2.5,3.6-3.1,5.6c-1.8,5.5,1.1,9,6.8,8.3c2.6-0.3,5.2-1.2,7.8-1.8c6.7-1.5,8.5-0.5,10.7,6.1c2.5,7.2,4.7,14.6,7.8,21.6
			c6.2,13.9,15.7,23.6,32.5,22.2c0.3,0,0.6,0.3,1.5,0.7c-0.3,3.8-0.6,7.9-1,12c-0.6,4.9,1.8,7.3,6.5,5.7c3.2-1.1,6-3.4,8.9-5.3
			c1.7-1.2,3-2.8,4.8-4.5c2.2,12.6-8.2,25.2-19.9,29.7c-4.2,1.6-8.6,2.6-12.8,4.1s-10.5,2.4-9.9,8s6.8,6.1,11.6,6.7
			c21.5,2.6,46.7-11.7,56.7-31.9c2.5-5,4.6-10.2,6.8-15.2c0.3,4.3-0.3,8.4-1.6,12.3c-1.4,4.2-0.3,7.3,3.1,9.5c3.6,2.4,7.1,0.9,9.3-2
			c4.2-5.4,7.8-11.2,11.4-16.9c1.4-2.2,2.4-4.8,4.2-8.4c1,3.8,1.3,6.1,2.2,8.2c2.1,5,3.8,10.5,7.2,14.6c2.1,2.6,6.9,4.6,10.3,4.3
			c4.3-0.3,4.1-5.3,4.5-8.9c0.2-2.6,0.1-5.3,0.2-8c0.1-3.1,0.4-6.2,0.6-9.3c0.3,0,0.6,0,0.8,0c0.8,2.7,1.5,5.4,2.4,8
			c5.6,17.8,16.2,30.4,35.3,34.4c10.1,2.1,20.3,1.4,30.2-0.8c1.6-0.4,3.4-2.1,4.1-3.7c1.7-3.8-0.3-7.1-5.1-8.6
			c-5.3-1.6-10.7-2.6-16-4.1c-7-1.9-11.7-6.3-13.7-12.8c3.6,0.8,7.1,2,10.6,2.1c3.3,0.1,5.2-1.6,3.7-5.5c-1.1-2.8-1.6-5.8-2.3-8.6
			c0.9-0.5,1.1-0.6,1.2-0.6c0.8-0.1,1.7-0.1,2.5-0.2c12.6-0.2,22.6-5.4,29.3-16.1c4.4-7.1,8.5-14.4,12-21.8
			c6.8-14.3,8.9-12.6,18.6-8.1c0.1,0.1,0.3,0.1,0.5,0.1c2.5-0.3,6.3,0.1,7.1-1.3c1.1-1.9,0.7-5.4-0.3-7.7
			C371.7,244,369.5,242.2,367.5,240.8z M180.7,184.6c-9.1,0-16.8-7.8-16.7-17c0.1-9.3,7.6-16.7,17-16.7c9.3,0.1,16.8,7.7,16.7,16.9
			C197.5,177.1,190,184.6,180.7,184.6z M231.2,231.3c-11.8,0-21.5-9.9-21.3-21.8c0.1-11.9,10.1-21.6,21.8-21.4
			c12.1,0.2,21.4,9.8,21.2,21.9C252.8,222,243.3,231.4,231.2,231.3z M267.4,168c-0.1-9.2,7.4-16.9,16.7-17c9.5-0.1,16.9,7.1,17,16.5
			s-7.2,17-16.5,17.1C275.3,184.7,267.5,177.1,267.4,168z"/>
	</g>
</g>
</svg>
